# xmcd
#
# Track frame offsets:
#	150
#	13559
#	27995
#	46579
#	61373
#	79648
#	97087
#	112541
#	125233
#	140526
#	158118
#	175903
#
# Disc length: 2571 seconds
# Revision: 0
# Processed by: cddbd v1.5.2PL0 Copyright (c) Steve Scherf et al.
# Submitted via: dBpowerAMP V12.0
#
DISCID=920a090c
DTITLE=The Tumbling Souls - Between The Truth And The Dream
DYEAR=2018
DGENRE=Country
TTITLE0=Don't Be Afraid Of The Dark
TTITLE1=Heart To My Soul
TTITLE2=Knowing Where You Come From
TTITLE3=City Of Adelaide
TTITLE4=King Of The Moon
TTITLE5=Rain And Clay
TTITLE6=Dance A Little Better
TTITLE7=Wishing My Time
TTITLE8=My Foundation
TTITLE9=Torn In Different Ways
TTITLE10=Stornoway At 2am
TTITLE11=Years Go By
EXTD=
EXTT0=
EXTT1=
EXTT2=
EXTT3=
EXTT4=
EXTT5=
EXTT6=
EXTT7=
EXTT8=
EXTT9=
EXTT10=
EXTT11=
PLAYORDER=
